<svg id="visual" viewBox="0 0 900 600" width="900" height="600" xmlns="http://www.w3.org/2000/svg" xmlns:xlink="http://www.w3.org/1999/xlink" version="1.1"><rect x="0" y="0" width="900" height="600" fill="#FFFFFF"></rect><defs><linearGradient id="grad1_0" x1="33.3%" y1="0%" x2="100%" y2="100%"><stop offset="20%" stop-color="#ffffff" stop-opacity="1"></stop><stop offset="80%" stop-color="#ffffff" stop-opacity="1"></stop></linearGradient></defs><defs><linearGradient id="grad2_0" x1="0%" y1="0%" x2="66.7%" y2="100%"><stop offset="20%" stop-color="#ffffff" stop-opacity="1"></stop><stop offset="80%" stop-color="#ffffff" stop-opacity="1"></stop></linearGradient></defs><g transform="translate(900, 0)"><path d="M0 486.7C-60 466.4 -120 446.1 -174.1 420.4C-228.3 394.6 -276.7 363.5 -325.3 325.3C-373.9 287 -422.7 241.7 -449.7 186.3C-476.7 130.9 -481.7 65.4 -486.7 0L0 0Z" fill="#FF0000"></path></g><g transform="translate(0, 600)"><path d="M0 -486.7C44.7 -438.4 89.4 -390.1 155.4 -375.1C221.3 -360.1 308.6 -378.5 344.2 -344.2C379.8 -309.9 363.6 -223 378.8 -156.9C393.9 -90.8 440.3 -45.4 486.7 0L0 0Z" fill="#FF0000"></path></g></svg>