<svg id="visual" viewBox="0 0 960 540" width="960" height="540" xmlns="http://www.w3.org/2000/svg" xmlns:xlink="http://www.w3.org/1999/xlink" version="1.1"><rect x="0" y="0" width="960" height="540" fill="#001220"></rect><defs><linearGradient id="grad1_0" x1="43.8%" y1="0%" x2="100%" y2="100%"><stop offset="14.444444444444446%" stop-color="#001220" stop-opacity="1"></stop><stop offset="85.55555555555554%" stop-color="#001220" stop-opacity="1"></stop></linearGradient></defs><defs><linearGradient id="grad2_0" x1="0%" y1="0%" x2="56.3%" y2="100%"><stop offset="14.444444444444446%" stop-color="#001220" stop-opacity="1"></stop><stop offset="85.55555555555554%" stop-color="#001220" stop-opacity="1"></stop></linearGradient></defs><g transform="translate(960, 0)"><path d="M0 513C-82.6 488.1 -165.1 463.1 -244.5 423.5C-323.9 383.9 -400.1 329.5 -444.3 256.5C-488.5 183.5 -500.7 91.7 -513 0L0 0Z" fill="#FF0066"></path></g><g transform="translate(0, 540)"><path d="M0 -513C85.8 -493.6 171.5 -474.2 250.5 -433.9C329.5 -393.6 401.7 -332.3 444.3 -256.5C486.9 -180.7 499.9 -90.3 513 0L0 0Z" fill="#FF0066"></path></g></svg>