<svg width="25" height="40" viewBox="0 0 25 40" fill="none" xmlns="http://www.w3.org/2000/svg">
<path d="M24.146 22.7733C24.0978 22.6368 24.0406 22.5037 23.9746 22.375L23.9828 22.3933C23.7421 21.825 21.8067 18.045 21.4836 17.53L12.4975 0L3.28223 17.96C2.96901 18.4767 1.25125 21.8267 1.01386 22.3933L0.919891 22.6033C0.307008 24.1135 -0.00557014 25.731 1.24426e-05 27.3633C1.24426e-05 30.7148 1.31688 33.929 3.66093 36.2988C6.00497 38.6686 9.18417 40 12.4992 40C15.8141 40 18.9933 38.6686 21.3374 36.2988C23.6814 33.929 24.9983 30.7148 24.9983 27.3633V27.3533L24.9999 27.185C24.9999 25.5933 24.6867 24.075 24.118 22.6917L24.146 22.77V22.7733ZM12.5041 36.6983C10.9052 36.6987 9.33368 36.278 7.94439 35.4778C6.55511 34.6776 5.3959 33.5254 4.58089 32.1346C3.76589 30.7438 3.32319 29.1624 3.29637 27.5461C3.26956 25.9298 3.65955 24.3343 4.42796 22.9167L4.40323 22.965C4.28248 23.614 4.22177 24.273 4.22189 24.9333V24.935C4.22364 27.8943 5.38719 30.7318 7.45694 32.8244C9.52669 34.9169 12.3334 36.0932 15.2604 36.095C15.4467 36.095 15.6462 36.095 15.8308 36.085C14.7772 36.4943 13.6576 36.7023 12.5288 36.6983H12.4909H12.4926H12.5041Z" fill="#F24E1E"/>
</svg>
