<svg width="40" height="35" viewBox="0 0 40 35" fill="none" xmlns="http://www.w3.org/2000/svg">
<path d="M31.4519 19.4833L23.9999 25.2778H13.9999V23.3333H22.1299C22.3108 23.3332 22.4883 23.2855 22.6435 23.1951C22.7986 23.1047 22.9256 22.975 23.011 22.82C23.0964 22.665 23.1369 22.4903 23.1283 22.3147C23.1196 22.139 23.0621 21.9689 22.9619 21.8225L21.1859 19.2325C20.8216 18.6994 20.3272 18.2621 19.7469 17.9598C19.1666 17.6576 18.5183 17.4996 17.8599 17.5H1.99994C1.46951 17.5 0.960798 17.7049 0.585725 18.0695C0.210653 18.4342 -6.10352e-05 18.9287 -6.10352e-05 19.4444V31.1111C-6.10352e-05 32.1425 0.421366 33.1317 1.17151 33.861C1.92166 34.5903 2.93907 35 3.99994 35H23.2779C24.1332 35.0002 24.9785 34.8226 25.7574 34.4792C26.5363 34.1358 27.2306 33.6345 27.7939 33.0089L39.9999 19.4444L37.0959 18.5033C36.1458 18.1954 35.1315 18.1238 34.1457 18.295C33.1598 18.4662 32.2337 18.8747 31.4519 19.4833ZM26.8059 17.5C28.3972 17.5 29.9234 16.8854 31.0486 15.7915C32.1738 14.6975 32.8059 13.2138 32.8059 11.6667C32.8059 6.40111 26.8059 0 26.8059 0C26.8059 0 20.8059 6.36028 20.8059 11.6667C20.8059 13.2138 21.4381 14.6975 22.5633 15.7915C23.6885 16.8854 25.2146 17.5 26.8059 17.5Z" fill="#fff"/>
</svg>
