<svg width="20" height="20" viewBox="0 0 20 20" fill="none" xmlns="http://www.w3.org/2000/svg">
<path d="M10 0C4.48 0 0 4.48 0 10C0 15.52 4.48 20 10 20C15.52 20 20 15.52 20 10C20 4.48 15.52 0 10 0ZM5 11.5C4.17 11.5 3.5 10.83 3.5 10C3.5 9.17 4.17 8.5 5 8.5C5.83 8.5 6.5 9.17 6.5 10C6.5 10.83 5.83 11.5 5 11.5ZM10 11.5C9.17 11.5 8.5 10.83 8.5 10C8.5 9.17 9.17 8.5 10 8.5C10.83 8.5 11.5 9.17 11.5 10C11.5 10.83 10.83 11.5 10 11.5ZM15 11.5C14.17 11.5 13.5 10.83 13.5 10C13.5 9.17 14.17 8.5 15 8.5C15.83 8.5 16.5 9.17 16.5 10C16.5 10.83 15.83 11.5 15 11.5Z" fill="#FF0000"/>
</svg>
